M48
;DRILL file {KiCad (5.0.0)} date 05/20/19 16:21:36
;FORMAT={-:-/ absolute / inch / decimal}
FMAT,2
INCH,TZ
T1C0.0157
T2C0.0394
T3C0.0354
T4C0.0941
T5C0.1000
T6C0.1358
%
G90
G05
M72
T1
X5.5827Y-1.3937
T2
X5.0976Y-3.2236
X5.1976Y-3.2236
X5.2976Y-3.2236
X5.3976Y-3.2236
X5.4976Y-3.2236
X5.5976Y-3.2236
X5.1644Y-1.997
X5.2644Y-1.997
X5.3644Y-1.997
X5.4644Y-1.997
X5.5644Y-1.997
X5.6644Y-1.997
X3.8644Y-1.997
X3.9644Y-1.997
X4.0644Y-1.997
X4.1644Y-1.997
X4.2644Y-1.997
X4.3644Y-1.997
X3.8644Y-1.797
X3.9644Y-1.797
X4.0644Y-1.797
X4.1644Y-1.797
X4.2644Y-1.797
X4.3644Y-1.797
X3.8644Y-2.497
X3.9644Y-2.497
X4.0644Y-2.497
X4.1644Y-2.497
X4.2644Y-2.497
X4.3644Y-2.497
X5.1644Y-1.797
X5.2644Y-1.797
X5.3644Y-1.797
X5.4644Y-1.797
X5.5644Y-1.797
X5.6644Y-1.797
X3.8644Y-1.697
X3.9644Y-1.697
X4.0644Y-1.697
X4.1644Y-1.697
X4.2644Y-1.697
X4.3644Y-1.697
X3.8644Y-1.597
X3.9644Y-1.597
X4.0644Y-1.597
X4.1644Y-1.597
X4.2644Y-1.597
X4.3644Y-1.597
X3.8644Y-1.497
X3.9644Y-1.497
X4.0644Y-1.497
X4.1644Y-1.497
X4.2644Y-1.497
X4.3644Y-1.497
X5.0976Y-3.5236
X5.1976Y-3.5236
X5.2976Y-3.5236
X5.3976Y-3.5236
X5.4976Y-3.5236
X5.5976Y-3.5236
X4.3976Y-3.8236
X4.4976Y-3.8236
X4.5976Y-3.8236
X4.6976Y-3.8236
X4.7976Y-3.8236
X4.8976Y-3.8236
X3.8644Y-1.397
X3.9644Y-1.397
X4.0644Y-1.397
X4.1644Y-1.397
X4.2644Y-1.397
X4.3644Y-1.397
X3.8644Y-1.297
X3.9644Y-1.297
X4.0644Y-1.297
X4.1644Y-1.297
X4.2644Y-1.297
X4.3644Y-1.297
X3.8644Y-2.597
X3.9644Y-2.597
X4.0644Y-2.597
X4.1644Y-2.597
X4.2644Y-2.597
X4.3644Y-2.597
X5.1644Y-2.297
X5.2644Y-2.297
X5.3644Y-2.297
X5.4644Y-2.297
X5.5644Y-2.297
X5.6644Y-2.297
X5.0976Y-3.4236
X5.1976Y-3.4236
X5.2976Y-3.4236
X5.3976Y-3.4236
X5.4976Y-3.4236
X5.5976Y-3.4236
X4.3976Y-3.7236
X4.4976Y-3.7236
X4.5976Y-3.7236
X4.6976Y-3.7236
X4.7976Y-3.7236
X4.8976Y-3.7236
X4.3976Y-3.3236
X4.4976Y-3.3236
X4.5976Y-3.3236
X4.6976Y-3.3236
X4.7976Y-3.3236
X4.8976Y-3.3236
X5.0976Y-3.6236
X5.1976Y-3.6236
X5.2976Y-3.6236
X5.3976Y-3.6236
X5.4976Y-3.6236
X5.5976Y-3.6236
X3.8644Y-2.697
X3.9644Y-2.697
X4.0644Y-2.697
X4.1644Y-2.697
X4.2644Y-2.697
X4.3644Y-2.697
X4.3976Y-3.6236
X4.4976Y-3.6236
X4.5976Y-3.6236
X4.6976Y-3.6236
X4.7976Y-3.6236
X4.8976Y-3.6236
X4.3976Y-3.5236
X4.4976Y-3.5236
X4.5976Y-3.5236
X4.6976Y-3.5236
X4.7976Y-3.5236
X4.8976Y-3.5236
X5.1644Y-2.797
X5.2644Y-2.797
X5.3644Y-2.797
X5.4644Y-2.797
X5.5644Y-2.797
X5.6644Y-2.797
X5.0976Y-3.9236
X5.1976Y-3.9236
X5.2976Y-3.9236
X5.3976Y-3.9236
X5.4976Y-3.9236
X5.5976Y-3.9236
X5.1644Y-2.697
X5.2644Y-2.697
X5.3644Y-2.697
X5.4644Y-2.697
X5.5644Y-2.697
X5.6644Y-2.697
X4.3976Y-3.4236
X4.4976Y-3.4236
X4.5976Y-3.4236
X4.6976Y-3.4236
X4.7976Y-3.4236
X4.8976Y-3.4236
X5.0976Y-3.3236
X5.1976Y-3.3236
X5.2976Y-3.3236
X5.3976Y-3.3236
X5.4976Y-3.3236
X5.5976Y-3.3236
X5.0976Y-3.8236
X5.1976Y-3.8236
X5.2976Y-3.8236
X5.3976Y-3.8236
X5.4976Y-3.8236
X5.5976Y-3.8236
X4.3976Y-3.9236
X4.4976Y-3.9236
X4.5976Y-3.9236
X4.6976Y-3.9236
X4.7976Y-3.9236
X4.8976Y-3.9236
X5.1644Y-2.497
X5.2644Y-2.497
X5.3644Y-2.497
X5.4644Y-2.497
X5.5644Y-2.497
X5.6644Y-2.497
X5.1644Y-2.597
X5.2644Y-2.597
X5.3644Y-2.597
X5.4644Y-2.597
X5.5644Y-2.597
X5.6644Y-2.597
X3.8644Y-2.397
X3.9644Y-2.397
X4.0644Y-2.397
X4.1644Y-2.397
X4.2644Y-2.397
X4.3644Y-2.397
X3.8644Y-2.797
X3.9644Y-2.797
X4.0644Y-2.797
X4.1644Y-2.797
X4.2644Y-2.797
X4.3644Y-2.797
X5.1644Y-2.097
X5.2644Y-2.097
X5.3644Y-2.097
X5.4644Y-2.097
X5.5644Y-2.097
X5.6644Y-2.097
X5.1644Y-1.897
X5.2644Y-1.897
X5.3644Y-1.897
X5.4644Y-1.897
X5.5644Y-1.897
X5.6644Y-1.897
X3.8644Y-2.197
X3.9644Y-2.197
X4.0644Y-2.197
X4.1644Y-2.197
X4.2644Y-2.197
X4.3644Y-2.197
X5.1644Y-2.397
X5.2644Y-2.397
X5.3644Y-2.397
X5.4644Y-2.397
X5.5644Y-2.397
X5.6644Y-2.397
X4.3976Y-3.2236
X4.4976Y-3.2236
X4.5976Y-3.2236
X4.6976Y-3.2236
X4.7976Y-3.2236
X4.8976Y-3.2236
X5.0976Y-3.7236
X5.1976Y-3.7236
X5.2976Y-3.7236
X5.3976Y-3.7236
X5.4976Y-3.7236
X5.5976Y-3.7236
X5.1644Y-1.697
X5.2644Y-1.697
X5.3644Y-1.697
X5.4644Y-1.697
X5.5644Y-1.697
X5.6644Y-1.697
X3.8644Y-2.297
X3.9644Y-2.297
X4.0644Y-2.297
X4.1644Y-2.297
X4.2644Y-2.297
X4.3644Y-2.297
X3.8644Y-2.097
X3.9644Y-2.097
X4.0644Y-2.097
X4.1644Y-2.097
X4.2644Y-2.097
X4.3644Y-2.097
X5.1644Y-2.197
X5.2644Y-2.197
X5.3644Y-2.197
X5.4644Y-2.197
X5.5644Y-2.197
X5.6644Y-2.197
X3.8644Y-1.897
X3.9644Y-1.897
X4.0644Y-1.897
X4.1644Y-1.897
X4.2644Y-1.897
X4.3644Y-1.897
T3
X5.3484Y-1.1614
X5.6161Y-1.1614
T4
X6.4794Y-1.3824
T5
X4.4138Y-1.1472
X4.4138Y-2.9472
X5.1138Y-1.1472
X5.1138Y-2.9472
T6
X5.8494Y-1.7104
X6.4794Y-3.8836
T0
M30
